<svg xmlns="http://www.w3.org/2000/svg" viewBox="0 0 64 64">
  <defs>
    <linearGradient id="g" x1="0" y1="0" x2="1" y2="1">
      <stop offset="0" stop-color="#a78bfa"/>
      <stop offset="1" stop-color="#22d3ee"/>
    </linearGradient>
  </defs>
  <rect x="2" y="2" width="60" height="60" rx="14" fill="#0b0b10"/>
  <rect x="2" y="2" width="60" height="60" rx="14" fill="none" stroke="url(#g)" stroke-width="3"/>
  <!-- Monograma MR -->
  <path fill="url(#g)" d="M13 44V20h5l4 8 4-8h5v24h-5V28l-4 8h-0.2l-4-8v16h-4.8zM36 20h8c4.7 0 7.6 2.6 7.6 6.6 0 3-1.6 5.1-4.2 6l4.8 11.4H46l-4.2-10H40V44h-4V20zm5.2 9.4H45c2.2 0 3.6-1.2 3.6-3s-1.4-3-3.6-3h-3.8v6z"/>
</svg>
